<svg width="512" height="512" xmlns="http://www.w3.org/2000/svg" xml:space="preserve" version="1.1">

 <g>
  <title>Layer 1</title>
  <g id="svg_1">
   <g id="svg_2">
    <path fill="#ffffff" id="svg_3" d="m383.071,148.928c-3.905,-3.904 -10.237,-3.904 -14.143,0l-20,20c-3.905,3.905 -3.905,10.237 0,14.143c3.907,3.906 10.238,3.905 14.143,0l20,-20c3.905,-3.905 3.905,-10.237 0,-14.143z"/>
   </g>
  </g>
  <g id="svg_4">
   <g id="svg_5">
    <path fill="#ffffff" id="svg_6" d="m143.071,148.928c-3.905,-3.904 -10.237,-3.904 -14.143,0l-20,20c-3.905,3.905 -3.905,10.237 0,14.143c3.907,3.906 10.238,3.905 14.143,0l20,-20c3.905,-3.905 3.905,-10.237 0,-14.143z"/>
   </g>
  </g>
  <g id="svg_7">
   <g id="svg_8">
    <path fill="#ffffff" id="svg_9" d="m333.071,108.928c-3.905,-3.904 -10.237,-3.904 -14.143,0l-20,20c-3.905,3.905 -3.905,10.237 0,14.143c3.907,3.906 10.238,3.905 14.143,0l20,-20c3.905,-3.905 3.905,-10.237 0,-14.143z"/>
   </g>
  </g>
  <g id="svg_10">
   <g id="svg_11">
    <path fill="#ffffff" id="svg_12" d="m213.071,108.928c-3.905,-3.904 -10.237,-3.904 -14.143,0l-20,20c-3.905,3.905 -3.905,10.237 0,14.143c3.907,3.906 10.238,3.905 14.143,0l20,-20c3.905,-3.905 3.905,-10.237 0,-14.143z"/>
   </g>
  </g>
  <g id="svg_13">
   <g id="svg_14">
    <path fill="#ffffff" id="svg_15" d="m263.071,148.928c-3.905,-3.904 -10.237,-3.904 -14.143,0l-20,20c-3.905,3.905 -3.905,10.237 0,14.143c3.907,3.906 10.238,3.905 14.143,0l20,-20c3.905,-3.905 3.905,-10.237 0,-14.143z"/>
   </g>
  </g>
  <g id="svg_16">
   <g id="svg_17">
    <path fill="#ffffff" id="svg_18" d="m512,356c0,-16.542 -13.458,-30 -30,-30l-10,0l0,-32.23c0.412,-0.358 0.832,-0.701 1.237,-1.07c6.491,-5.917 20.049,-9.7 28.889,-9.812c5.522,-0.069 9.943,-4.603 9.873,-10.125c-0.069,-5.479 -4.532,-9.874 -9.997,-9.874c-0.042,0 -0.086,0 -0.128,0.001c-8.581,0.108 -19.982,2.386 -29.874,7.063l0,-26.213c12.176,-4.983 20.271,-17.519 18.533,-31.435c-11.796,-94.809 -92.847,-166.305 -188.533,-166.305l-92,0c-95.686,0 -176.737,71.496 -188.533,166.301c-1.733,13.875 6.307,26.437 18.533,31.44l0,25.771c-9.929,-4.498 -21.357,-6.748 -30.131,-6.622c-5.522,0.072 -9.94,4.608 -9.868,10.131c0.072,5.478 4.535,9.868 9.997,9.868c0.044,0 0.089,0 0.134,-0.001c8.942,-0.137 22.822,3.599 29.592,9.774c0.09,0.083 0.186,0.161 0.277,0.243l0,33.095l-10.001,0c-16.574,0 -30,13.424 -30,30c0,14.865 10.87,27.233 25.078,29.589c-2.337,6.169 -2.505,12.909 -0.338,19.313c12.394,36.544 46.657,61.098 85.26,61.098l292,0c38.603,0 72.866,-24.554 85.263,-61.104c2.165,-6.398 1.997,-13.135 -0.339,-19.303c13.94,-2.292 25.076,-14.423 25.076,-29.593zm-470.687,-141.226c10.554,-84.815 83.073,-148.774 168.687,-148.774l92,0c85.614,0 158.133,63.959 168.687,148.779c0.722,5.779 -3.787,10.811 -9.356,11.184c-0.066,0.004 -0.132,0.01 -0.198,0.016c-0.171,0.015 -0.342,0.021 -0.513,0.021l-409.24,0c-5.89,0 -10.82,-5.186 -10.067,-11.226zm371.925,63.146c-21.975,-20.039 -51.502,-20.039 -73.477,0c-14.349,13.084 -32.175,13.084 -46.523,0c-21.975,-20.039 -51.502,-20.039 -73.477,0c-14.349,13.084 -32.175,13.084 -46.523,0c-21.975,-20.038 -51.502,-20.04 -73.479,0.002c-12.161,11.098 -26.73,12.859 -39.759,5.053l0,-36.975l392,0l0,37.555c-12.759,7.099 -26.953,5.134 -38.762,-5.635zm38.762,27.323l0,20.757l-392,0l0,-21.057c5.407,1.871 10.956,2.807 16.5,2.806c12.905,0 25.776,-5.048 36.739,-15.051c14.348,-13.084 32.175,-13.084 46.523,0c21.975,20.041 51.503,20.04 73.477,0c14.349,-13.084 32.176,-13.084 46.523,0c21.975,20.041 51.503,20.04 73.477,0c14.348,-13.085 32.175,-13.083 46.523,0c15.297,13.952 34.503,18.24 52.238,12.545zm16.32,93.236c-9.64,28.423 -36.292,47.521 -66.32,47.521l-292,0c-30.028,0 -56.68,-19.098 -66.317,-47.515c-2.075,-6.13 3.218,-12.485 9.777,-12.485l405.08,0c6.583,0 11.842,6.385 9.78,12.479zm13.68,-32.479l-452,0c-5.514,0 -10,-4.486 -10,-10c0,-5.521 4.479,-10 10,-10l452,0c5.514,0 10,4.486 10,10c0,5.521 -4.479,10 -10,10z"/>
   </g>
  </g>
  <g id="svg_19"/>
  <g id="svg_20"/>
  <g id="svg_21"/>
  <g id="svg_22"/>
  <g id="svg_23"/>
  <g id="svg_24"/>
  <g id="svg_25"/>
  <g id="svg_26"/>
  <g id="svg_27"/>
  <g id="svg_28"/>
  <g id="svg_29"/>
  <g id="svg_30"/>
  <g id="svg_31"/>
  <g id="svg_32"/>
  <g id="svg_33"/>
 </g>
</svg>